<?xml version="1.0" encoding="utf-8"?>
<!-- Generator: Adobe Illustrator 15.1.0, SVG Export Plug-In . SVG Version: 6.00 Build 0)  -->
<!DOCTYPE svg PUBLIC "-//W3C//DTD SVG 1.1//EN" "http://www.w3.org/Graphics/SVG/1.1/DTD/svg11.dtd">
<svg version="1.1" id="Ebene_1" xmlns="http://www.w3.org/2000/svg" xmlns:xlink="http://www.w3.org/1999/xlink" x="0px" y="0px"
	 width="875px" height="400px" viewBox="0 0 875 400" enable-background="new 0 0 875 400" xml:space="preserve">
    <metadata>
<x:xmpmeta xmlns:x="adobe:ns:meta/" x:xmptk="Adobe XMP Core 5.0-c060 61.134777, 2010/02/12-17:32:00">
   <rdf:RDF xmlns:rdf="http://www.w3.org/1999/02/22-rdf-syntax-ns#">
      <rdf:Description rdf:about=""
            xmlns:dc="http://purl.org/dc/elements/1.1/">
         <dc:format>image/svg+xml</dc:format>
         <dc:title>
            <rdf:Alt>
               <rdf:li xml:lang="x-default">Versuchsaufbau an einer Elektronenkanone</rdf:li>
            </rdf:Alt>
         </dc:title>
         <dc:creator>
            <rdf:Seq>
               <rdf:li>Stefan Richtberg (stefan@richtberg.org)</rdf:li>
            </rdf:Seq>
         </dc:creator>
         <dc:rights>
            <rdf:Alt>
               <rdf:li xml:lang="x-default">© Stefan Richtberg</rdf:li>
            </rdf:Alt>
         </dc:rights>
                  <dc:description>
            <rdf:Alt>
               <rdf:li xml:lang="x-default">Versuchsaufbau an einer Elektronenkanone</rdf:li>
            </rdf:Alt>
         </dc:description>
      </rdf:Description>
      <rdf:Description rdf:about=""
            xmlns:Iptc4xmpCore="http://iptc.org/std/Iptc4xmpCore/1.0/xmlns/">
         <Iptc4xmpCore:CreatorContactInfo rdf:parseType="Resource">
            <Iptc4xmpCore:CiAdrExtadr>Trautmannstr. 7</Iptc4xmpCore:CiAdrExtadr>
            <Iptc4xmpCore:CiAdrCity>München</Iptc4xmpCore:CiAdrCity>
            <Iptc4xmpCore:CiAdrPcode>81373</Iptc4xmpCore:CiAdrPcode>
            <Iptc4xmpCore:CiAdrCtry>Germany</Iptc4xmpCore:CiAdrCtry>
            <Iptc4xmpCore:CiEmailWork>stefan@richtberg.org</Iptc4xmpCore:CiEmailWork>
            <Iptc4xmpCore:CiUrlWork>www.richtberg.org</Iptc4xmpCore:CiUrlWork>
         </Iptc4xmpCore:CreatorContactInfo>
      </rdf:Description>
   </rdf:RDF>
</x:xmpmeta>
	</metadata>
<path fill="none" stroke="#FFED00" stroke-width="4" stroke-miterlimit="10" d="M183.325,192.157"/>
<path fill="none" stroke="#FFED00" stroke-width="4" stroke-miterlimit="10" d="M265.679,64.787"/>
<path fill="none" stroke="#FFED00" stroke-width="3.2449" stroke-miterlimit="10" d="M1505,214.178"/>
<g>
	<line fill="none" stroke="#B17F4A" stroke-width="4" stroke-miterlimit="10" x1="263.923" y1="31.993" x2="834.373" y2="31.993"/>
	<g>
		<path fill="none" stroke="#B17F4A" stroke-width="4" stroke-miterlimit="10" d="M183.305,157.954
			c-1.032,51.737,38.091,126.071,86.096,126.071"/>
		<path fill="none" stroke="#B17F4A" stroke-width="4" stroke-miterlimit="10" d="M183.325,162.871
			c-1.033-55.531,38.627-130.877,86.758-130.877"/>
		<path fill="none" stroke="#B17F4A" stroke-width="4" stroke-miterlimit="10" d="M859.039,157.954
			c0.303,73.665-11.116,126.015-25.315,126.015"/>
		<path fill="none" stroke="#B17F4A" stroke-width="4" stroke-miterlimit="10" d="M858.983,159.187
			c0.304-73.666-11.247-127.248-25.448-127.248"/>
		<line fill="none" stroke="#B17F4A" stroke-width="4" stroke-miterlimit="10" x1="269.4" y1="284.024" x2="834.262" y2="283.969"/>
	</g>
</g>
<path fill="none" stroke="#FFED00" stroke-width="4" stroke-miterlimit="10" d="M146.883,127.916"/>
<path fill="none" stroke="#FFED00" stroke-width="4" stroke-miterlimit="10" d="M187.25,98.583"/>
<g>
	<path d="M611.179,355.909c0.048,2.856,1.848,4.032,3.984,4.032c1.512,0,2.448-0.264,3.216-0.6l0.384,1.512
		c-0.744,0.336-2.04,0.744-3.888,0.744c-3.576,0-5.712-2.377-5.712-5.881s2.064-6.24,5.448-6.24c3.816,0,4.801,3.313,4.801,5.448
		c0,0.433-0.024,0.744-0.072,0.984H611.179z M617.371,354.396c0.024-1.32-0.552-3.408-2.928-3.408c-2.16,0-3.072,1.944-3.24,3.408
		H617.371z"/>
	<path d="M622.843,349.717l2.28,6.504c0.384,1.08,0.696,2.041,0.936,3h0.072c0.264-0.959,0.6-1.92,0.984-3l2.256-6.504h2.208
		l-4.561,11.617h-2.016l-4.417-11.617H622.843z"/>
	<path d="M641.635,358.549c0,1.008,0.048,1.992,0.168,2.785h-1.896l-0.168-1.465h-0.072c-0.648,0.912-1.896,1.729-3.552,1.729
		c-2.353,0-3.553-1.656-3.553-3.336c0-2.809,2.497-4.345,6.985-4.32v-0.24c0-0.937-0.264-2.688-2.64-2.664
		c-1.104,0-2.232,0.312-3.048,0.863l-0.48-1.416c0.96-0.6,2.376-1.008,3.84-1.008c3.552,0,4.417,2.424,4.417,4.729V358.549z
		 M639.595,355.404c-2.304-0.047-4.92,0.361-4.92,2.617c0,1.393,0.912,2.016,1.968,2.016c1.536,0,2.52-0.96,2.856-1.943
		c0.072-0.24,0.096-0.48,0.096-0.672V355.404z"/>
	<path d="M647.13,355.045h0.048c0.288-0.408,0.672-0.912,1.008-1.32l3.432-4.008h2.521l-4.464,4.775l5.113,6.842h-2.593
		l-3.984-5.568l-1.08,1.199v4.369h-2.088v-17.042h2.088V355.045z"/>
	<path d="M666.115,358.141c0,1.225,0.023,2.281,0.096,3.193h-1.873l-0.119-1.896h-0.049c-0.527,0.936-1.775,2.16-3.84,2.16
		c-1.824,0-4.008-1.032-4.008-5.088v-6.793h2.111v6.408c0,2.208,0.696,3.721,2.593,3.721c1.416,0,2.399-0.984,2.784-1.944
		c0.119-0.288,0.191-0.673,0.191-1.08v-7.104h2.113V358.141z"/>
	<path d="M671.971,346.452c0,0.72-0.505,1.296-1.345,1.296c-0.769,0-1.272-0.576-1.272-1.296s0.528-1.319,1.32-1.319
		C671.441,345.133,671.971,345.708,671.971,346.452z M669.617,361.334v-11.617h2.113v11.617H669.617z"/>
	<path d="M676.41,355.909c0.047,2.856,1.848,4.032,3.984,4.032c1.512,0,2.447-0.264,3.216-0.6l0.384,1.512
		c-0.744,0.336-2.04,0.744-3.889,0.744c-3.576,0-5.712-2.377-5.712-5.881s2.063-6.24,5.448-6.24c3.816,0,4.801,3.313,4.801,5.448
		c0,0.433-0.023,0.744-0.072,0.984H676.41z M682.602,354.396c0.025-1.32-0.551-3.408-2.928-3.408c-2.16,0-3.072,1.944-3.24,3.408
		H682.602z"/>
	<path d="M687.258,353.341c0-1.368-0.024-2.544-0.096-3.624h1.848l0.096,2.304h0.072c0.527-1.56,1.824-2.544,3.24-2.544
		c0.216,0,0.385,0.023,0.576,0.048v1.992c-0.217-0.048-0.432-0.048-0.721-0.048c-1.488,0-2.543,1.104-2.832,2.688
		c-0.048,0.289-0.072,0.648-0.072,0.984v6.193h-2.111V353.341z"/>
	<path d="M698.225,346.932v2.785h3.025v1.607h-3.025v6.266c0,1.439,0.408,2.256,1.584,2.256c0.576,0,0.912-0.049,1.225-0.145
		l0.096,1.608c-0.408,0.144-1.056,0.288-1.871,0.288c-0.984,0-1.777-0.336-2.281-0.889c-0.576-0.647-0.815-1.68-0.815-3.048v-6.337
		h-1.8v-1.607h1.8v-2.16L698.225,346.932z"/>
	<path d="M704.656,355.909c0.049,2.856,1.849,4.032,3.984,4.032c1.513,0,2.449-0.264,3.217-0.6l0.384,1.512
		c-0.743,0.336-2.04,0.744-3.888,0.744c-3.576,0-5.713-2.377-5.713-5.881s2.064-6.24,5.448-6.24c3.816,0,4.801,3.313,4.801,5.448
		c0,0.433-0.024,0.744-0.072,0.984H704.656z M710.85,354.396c0.023-1.32-0.553-3.408-2.929-3.408c-2.16,0-3.072,1.944-3.24,3.408
		H710.85z"/>
	<path d="M715.504,353.341c0-1.368-0.023-2.544-0.096-3.624h1.849l0.096,2.304h0.072c0.528-1.56,1.824-2.544,3.24-2.544
		c0.216,0,0.384,0.023,0.576,0.048v1.992c-0.216-0.048-0.433-0.048-0.72-0.048c-1.488,0-2.545,1.104-2.832,2.688
		c-0.049,0.289-0.072,0.648-0.072,0.984v6.193h-2.113V353.341z"/>
	<path d="M740.85,360.613c-0.937,0.36-2.809,0.889-4.992,0.889c-2.449,0-4.465-0.625-6.049-2.137
		c-1.393-1.344-2.256-3.504-2.256-6.024c0-4.824,3.336-8.353,8.76-8.353c1.873,0,3.361,0.408,4.057,0.744l-0.527,1.704
		c-0.865-0.408-1.945-0.696-3.577-0.696c-3.937,0-6.505,2.448-6.505,6.504c0,4.105,2.449,6.529,6.241,6.529
		c1.368,0,2.304-0.191,2.784-0.432v-4.824h-3.264v-1.681h5.328V360.613z"/>
	<path d="M743.943,344.292h2.113v17.042h-2.113V344.292z"/>
	<path d="M757.77,358.549c0,1.008,0.047,1.992,0.168,2.785h-1.896l-0.168-1.465h-0.072c-0.648,0.912-1.896,1.729-3.553,1.729
		c-2.352,0-3.553-1.656-3.553-3.336c0-2.809,2.497-4.345,6.985-4.32v-0.24c0-0.937-0.265-2.688-2.64-2.664
		c-1.104,0-2.232,0.312-3.049,0.863l-0.48-1.416c0.961-0.6,2.377-1.008,3.841-1.008c3.552,0,4.417,2.424,4.417,4.729V358.549z
		 M755.729,355.404c-2.305-0.047-4.92,0.361-4.92,2.617c0,1.393,0.912,2.016,1.968,2.016c1.536,0,2.521-0.96,2.856-1.943
		c0.072-0.24,0.096-0.48,0.096-0.672V355.404z"/>
	<path d="M760.889,359.197c0.647,0.385,1.752,0.816,2.808,0.816c1.513,0,2.231-0.744,2.231-1.729c0-1.008-0.6-1.536-2.136-2.112
		c-2.112-0.769-3.097-1.896-3.097-3.288c0-1.872,1.537-3.408,4.009-3.408c1.177,0,2.208,0.313,2.833,0.721l-0.504,1.535
		c-0.457-0.287-1.297-0.695-2.377-0.695c-1.248,0-1.92,0.72-1.92,1.584c0,0.96,0.672,1.392,2.184,1.992
		c1.992,0.744,3.049,1.752,3.049,3.48c0,2.063-1.608,3.504-4.32,3.504c-1.272,0-2.448-0.336-3.265-0.816L760.889,359.197z"/>
	<path d="M772.768,355.045h0.049c0.287-0.408,0.672-0.912,1.008-1.32l3.432-4.008h2.521l-4.465,4.775l5.112,6.842h-2.593
		l-3.984-5.568l-1.08,1.199v4.369h-2.088v-17.042h2.088V355.045z"/>
	<path d="M792.449,355.43c0,4.296-3.001,6.168-5.785,6.168c-3.12,0-5.568-2.305-5.568-5.977c0-3.864,2.568-6.145,5.76-6.145
		C790.192,349.477,792.449,351.9,792.449,355.43z M783.256,355.549c0,2.545,1.439,4.465,3.504,4.465
		c2.017,0,3.529-1.896,3.529-4.513c0-1.968-0.984-4.44-3.48-4.44C784.336,351.061,783.256,353.365,783.256,355.549z"/>
	<path d="M795.111,344.292h2.112v17.042h-2.112V344.292z"/>
	<path d="M800.775,344.292h2.088v7.297h0.048c0.744-1.296,2.089-2.112,3.96-2.112c2.904,0,4.921,2.4,4.921,5.904
		c0,4.152-2.64,6.217-5.232,6.217c-1.681,0-3.024-0.648-3.912-2.16H802.6l-0.121,1.896h-1.799c0.047-0.793,0.096-1.969,0.096-3.001
		V344.292z M802.863,356.678c0,0.264,0.023,0.527,0.096,0.768c0.385,1.464,1.633,2.473,3.168,2.473c2.232,0,3.529-1.801,3.529-4.465
		c0-2.328-1.201-4.32-3.48-4.32c-1.416,0-2.76,1.008-3.192,2.592c-0.072,0.264-0.12,0.553-0.12,0.889V356.678z"/>
	<path d="M815.607,355.909c0.047,2.856,1.848,4.032,3.984,4.032c1.512,0,2.447-0.264,3.216-0.6l0.384,1.512
		c-0.744,0.336-2.04,0.744-3.889,0.744c-3.576,0-5.712-2.377-5.712-5.881s2.063-6.24,5.448-6.24c3.816,0,4.801,3.313,4.801,5.448
		c0,0.433-0.023,0.744-0.072,0.984H815.607z M821.799,354.396c0.025-1.32-0.551-3.408-2.928-3.408c-2.16,0-3.072,1.944-3.24,3.408
		H821.799z"/>
	<path d="M826.455,352.861c0-1.225-0.024-2.185-0.096-3.145h1.871l0.121,1.92h0.047c0.576-1.08,1.921-2.16,3.841-2.16
		c1.608,0,4.104,0.96,4.104,4.944v6.913h-2.112v-6.697c0-1.872-0.696-3.432-2.688-3.432c-1.367,0-2.447,0.983-2.832,2.16
		c-0.096,0.264-0.145,0.623-0.145,0.984v6.984h-2.111V352.861z"/>
</g>
<g>
	<g>
		<line fill="none" stroke="#000000" stroke-width="2" x1="737.273" y1="338" x2="737.273" y2="292.11"/>
		<g>
			<polygon points="742.999,296.749 741.974,297.704 737.274,292.647 732.574,297.704 731.549,296.749 737.274,290.592 			"/>
		</g>
	</g>
</g>
<g>
	<path fill="none" stroke="#1B181C" stroke-width="2" d="M393.58,315.589c4.896,0,8.857,3.957,8.857,8.875
		c0,4.914-3.962,8.875-8.857,8.875c-4.865,0-8.824-3.961-8.824-8.875C384.756,319.546,388.715,315.589,393.58,315.589z"/>
	<polyline fill="none" stroke="#231F20" stroke-width="4.0576" points="504.673,255.451 504.673,325.451 403.237,325.451 	"/>
	<line fill="none" stroke="#231F20" stroke-width="4" x1="393.597" y1="308.479" x2="393.597" y2="292.479"/>
	<line fill="none" stroke="#231F20" stroke-width="4" x1="385.597" y1="300.938" x2="401.597" y2="300.938"/>
</g>
<g>
	<path fill="none" stroke="#1B181C" stroke-width="2" d="M337.337,333.339c-4.867,0-8.826-3.961-8.826-8.875
		c0-4.918,3.959-8.875,8.826-8.875"/>
	<path fill="none" stroke="#1B181C" stroke-width="2" d="M346.162,324.464c0,4.914-3.958,8.875-8.825,8.875"/>
	<path fill="none" stroke="#1B181C" stroke-width="2" d="M337.337,315.589c4.867,0,8.825,3.957,8.825,8.875"/>
	<polyline fill="none" stroke="#231F20" stroke-width="3.3016" points="230,189.333 229.617,323.874 328.511,323.874 	"/>
	<line fill="none" stroke="#231F20" stroke-width="4" x1="329.337" y1="300.671" x2="345.337" y2="300.671"/>
</g>
<line fill="#1291D0" stroke="#1291D0" stroke-width="8" x1="363.788" y1="152.412" x2="507.641" y2="152.411"/>
<g id="Anode" opacity="0.5">
	
		<linearGradient id="SVGID_1_" gradientUnits="userSpaceOnUse" x1="1021.373" y1="-425.2363" x2="1021.373" y2="-212.1016" gradientTransform="matrix(1 0 0 -1 -522.7012 -169.7988)">
		<stop  offset="0" style="stop-color:#404042"/>
		<stop  offset="0.7152" style="stop-color:#F1F1F2"/>
		<stop  offset="1" style="stop-color:#6E6F71"/>
	</linearGradient>
	<path fill="url(#SVGID_1_)" stroke="#010202" stroke-width="0.8388" d="M512.745,42.305v213.133c0,0-6.859,0-13.11,0
		c-6.824,0-15.037-47.764-15.037-106.603c0-58.844,8.213-106.532,15.037-106.532C506.321,42.305,512.745,42.305,512.745,42.305z"/>
	<path fill="#A6A8AB" stroke="#010202" stroke-width="0.8388" d="M512.745,42.303c6.685,0,15.025,47.694,15.025,106.534
		c0,58.845-8.34,106.601-15.025,106.601c-6.684,0-15.031-47.756-15.031-106.601C497.714,89.997,506.061,42.303,512.745,42.303z"/>
	
		<linearGradient id="SVGID_2_" gradientUnits="userSpaceOnUse" x1="1035.2861" y1="-354.1943" x2="1035.2861" y2="-283.146" gradientTransform="matrix(1 0 0 -1 -522.7012 -169.7988)">
		<stop  offset="0" style="stop-color:#6E6F71"/>
		<stop  offset="0.2848" style="stop-color:#A6A8AB"/>
		<stop  offset="1" style="stop-color:#404042"/>
	</linearGradient>
	<path fill="url(#SVGID_2_)" stroke="#010202" stroke-width="0.6099" d="M512.585,113.347c1.205,0,4.972,15.876,4.972,35.49
		c0,19.616-3.767,35.559-4.972,35.559c-1.206,0-4.972-15.942-4.972-35.559C507.614,129.224,511.38,113.347,512.585,113.347z"/>
</g>
<g id="WehneltZylinder" opacity="0.6">
	<path fill="none" stroke="#010202" stroke-width="0.7798" d="M254.309,84.742c4.653,0,7.583,40.585,7.583,68.122
		c0,27.535-3.163,68.125-7.583,68.125"/>
	
		<linearGradient id="SVGID_3_" gradientUnits="userSpaceOnUse" x1="829.3477" y1="-390.7876" x2="829.3477" y2="-254.5391" gradientTransform="matrix(1 0 0 -1 -522.7012 -169.7988)">
		<stop  offset="0" style="stop-color:#404042"/>
		<stop  offset="0.7152" style="stop-color:#F1F1F2"/>
		<stop  offset="1" style="stop-color:#6E6F71"/>
	</linearGradient>
	<path opacity="0.8" fill="url(#SVGID_3_)" stroke="#010202" stroke-width="0.655" enable-background="new    " d="M367.212,220.989
		c0,0-108.871,0-112.147,0c-3.24,0-8.982-36.594-8.982-66.316c0-29.718,5.742-69.933,8.982-69.933c3.276,0,112.147,0,112.147,0
		V220.989z"/>
	<path fill="#A6A8AB" stroke="#010202" stroke-width="0.7798" d="M367.212,84.74c4.188,0,9.871,30.502,9.871,68.124
		c0,37.625-5.684,68.125-9.871,68.125c-4.189,0-10.797-29.025-10.797-66.649C356.416,116.718,363.023,84.74,367.212,84.74z"/>
	<path fill="#FFFFFF" stroke="#010202" stroke-width="0.7798" d="M367.218,125.632c1.664,0,3.039,12.18,3.039,27.229
		c0,15.053-1.375,27.284-3.039,27.284c-1.697,0-3.045-12.23-3.045-27.284C364.173,137.812,365.521,125.632,367.218,125.632z"/>
</g>
<g id="Gleichspannungsquelle_1_">
	<path fill="none" stroke="#1B181C" stroke-width="2" d="M145.038,179.868c4.88,0,8.842,3.959,8.842,8.825
		c0,4.879-3.962,8.84-8.842,8.84c-4.866,0-8.826-3.961-8.826-8.84C136.211,183.827,140.171,179.868,145.038,179.868z"/>
</g>
<line fill="none" stroke="#010202" stroke-width="4" x1="153.879" y1="188.693" x2="311.769" y2="188.701"/>
<g id="Gleichspannungsquelle_2_">
	<path fill="none" stroke="#1B181C" stroke-width="2" d="M145.038,104.507c4.88,0,8.842,3.959,8.842,8.825
		c0,4.879-3.962,8.84-8.842,8.84c-4.866,0-8.826-3.961-8.826-8.84C136.211,108.466,140.171,104.507,145.038,104.507z"/>
</g>
<line fill="none" stroke="#010202" stroke-width="4" x1="153.879" y1="113.333" x2="311.769" y2="113.34"/>
<g>
	<path fill="none" stroke="#E30613" stroke-width="1.5597" d="M316.336,113.086c9.172,0,16.588,2.872,16.588,6.377
		c0,3.506-7.416,6.376-16.588,6.376c-9.117,0-16.531-2.87-16.531-6.376C299.805,115.958,307.219,113.086,316.336,113.086z"/>
	<path fill="none" stroke="#E30613" stroke-width="1.5597" d="M316.336,120.932c9.172,0,16.588,2.872,16.588,6.375
		c0,3.513-7.416,6.377-16.588,6.377c-9.117,0-16.531-2.864-16.531-6.377C299.805,123.804,307.219,120.932,316.336,120.932z"/>
	<path fill="none" stroke="#E30613" stroke-width="1.5597" d="M316.336,128.827c9.172,0,16.588,2.822,16.588,6.352
		c0,3.533-7.416,6.351-16.588,6.351c-9.117,0-16.531-2.817-16.531-6.351C299.805,131.649,307.219,128.827,316.336,128.827z"/>
	<path fill="none" stroke="#E30613" stroke-width="1.5597" d="M316.336,136.671c9.172,0,16.588,2.865,16.588,6.378
		c0,3.505-7.416,6.374-16.588,6.374c-9.117,0-16.531-2.869-16.531-6.374C299.805,139.537,307.219,136.671,316.336,136.671z"/>
	<path fill="none" stroke="#E30613" stroke-width="1.5597" d="M316.336,144.516c9.172,0,16.588,2.872,16.588,6.378
		s-7.416,6.375-16.588,6.375c-9.117,0-16.531-2.869-16.531-6.375S307.219,144.516,316.336,144.516z"/>
	<path fill="none" stroke="#E30613" stroke-width="1.5597" d="M316.336,152.412c9.172,0,16.588,2.82,16.588,6.342
		c0,3.539-7.416,6.359-16.588,6.359c-9.117,0-16.531-2.82-16.531-6.359C299.805,155.232,307.219,152.412,316.336,152.412z"/>
	<path fill="none" stroke="#E30613" stroke-width="1.5597" d="M316.336,160.257c9.172,0,16.588,2.854,16.588,6.375
		c0,3.508-7.416,6.375-16.588,6.375c-9.117,0-16.531-2.867-16.531-6.375C299.805,163.111,307.219,160.257,316.336,160.257z"/>
	<path fill="none" stroke="#E30613" stroke-width="1.5597" d="M316.336,168.101c9.172,0,16.588,2.871,16.588,6.377
		s-7.416,6.377-16.588,6.377c-9.117,0-16.531-2.871-16.531-6.377S307.219,168.101,316.336,168.101z"/>
	<path fill="none" stroke="#E30613" stroke-width="1.5597" d="M316.336,175.984c9.172,0,16.588,2.83,16.588,6.34
		c0,3.555-7.416,6.377-16.588,6.377c-9.117,0-16.531-2.822-16.531-6.377C299.805,178.814,307.219,175.984,316.336,175.984z"/>
</g>
<g>
	<g>
		<path fill="none" stroke="#1B181C" stroke-width="1.934" d="M176,40.235c48.894,0,86.653,58.138,116.506,100.678"/>
		<g>
			<polygon fill="#1B181C" points="282.354,140.193 282.759,138.3 292.082,140.302 293.398,130.856 295.315,131.125 293.71,142.629 
							"/>
		</g>
	</g>
</g>
<g>
	<path d="M258.773,242l-4.104-16.177h2.208l1.92,8.185c0.48,2.016,0.912,4.032,1.2,5.592h0.048c0.264-1.608,0.768-3.528,1.32-5.616
		l2.16-8.161h2.184l1.968,8.208c0.456,1.92,0.888,3.84,1.128,5.544h0.048c0.336-1.776,0.792-3.576,1.296-5.592l2.136-8.161h2.136
		L269.838,242h-2.184l-2.04-8.425c-0.504-2.064-0.84-3.648-1.056-5.28h-0.048c-0.264,1.608-0.648,3.192-1.248,5.28L260.958,242
		H258.773z"/>
	<path d="M276.749,236.576c0.048,2.856,1.848,4.032,3.984,4.032c1.512,0,2.448-0.264,3.216-0.6l0.384,1.512
		c-0.744,0.337-2.04,0.744-3.888,0.744c-3.576,0-5.712-2.376-5.712-5.88c0-3.504,2.064-6.24,5.448-6.24
		c3.816,0,4.801,3.312,4.801,5.448c0,0.432-0.024,0.744-0.072,0.984H276.749z M282.941,235.064c0.024-1.32-0.552-3.408-2.928-3.408
		c-2.16,0-3.072,1.944-3.24,3.408H282.941z"/>
	<path d="M287.597,224.959h2.112v7.272h0.048c0.336-0.6,0.864-1.152,1.512-1.512c0.624-0.36,1.368-0.576,2.16-0.576
		c1.561,0,4.057,0.96,4.057,4.944V242h-2.112v-6.672c0-1.873-0.696-3.433-2.688-3.433c-1.368,0-2.424,0.96-2.833,2.088
		c-0.12,0.312-0.144,0.624-0.144,1.008V242h-2.112V224.959z"/>
	<path d="M300.917,233.528c0-1.224-0.024-2.184-0.096-3.145h1.872l0.12,1.92h0.048c0.576-1.08,1.92-2.16,3.84-2.16
		c1.608,0,4.104,0.96,4.104,4.944V242h-2.112v-6.697c0-1.872-0.696-3.432-2.688-3.432c-1.368,0-2.448,0.984-2.833,2.16
		c-0.096,0.264-0.144,0.624-0.144,0.984V242h-2.112V233.528z"/>
	<path d="M315.413,236.576c0.048,2.856,1.848,4.032,3.984,4.032c1.512,0,2.448-0.264,3.216-0.6l0.384,1.512
		c-0.744,0.337-2.04,0.744-3.888,0.744c-3.576,0-5.712-2.376-5.712-5.88c0-3.504,2.064-6.24,5.448-6.24
		c3.816,0,4.801,3.312,4.801,5.448c0,0.432-0.024,0.744-0.072,0.984H315.413z M321.605,235.064c0.024-1.32-0.552-3.408-2.928-3.408
		c-2.16,0-3.072,1.944-3.24,3.408H321.605z"/>
	<path d="M326.26,224.959h2.112V242h-2.112V224.959z"/>
	<path d="M334.469,227.599v2.784h3.024v1.608h-3.024v6.265c0,1.44,0.408,2.256,1.584,2.256c0.576,0,0.912-0.048,1.224-0.144
		l0.096,1.608c-0.408,0.145-1.056,0.288-1.872,0.288c-0.984,0-1.776-0.336-2.28-0.888c-0.576-0.648-0.816-1.68-0.816-3.048v-6.336
		h-1.8v-1.608h1.8v-2.16L334.469,227.599z"/>
	<path d="M338.549,240.776l5.232-6.84c0.528-0.648,1.008-1.2,1.536-1.824v-0.048h-6.289v-1.68h8.833v1.32l-5.184,6.745
		c-0.504,0.648-0.96,1.248-1.488,1.824v0.048h6.769V242h-9.409V240.776z"/>
	<path d="M351.484,230.383l2.521,6.865c0.288,0.768,0.576,1.68,0.768,2.376h0.048c0.216-0.696,0.456-1.584,0.744-2.424l2.304-6.817
		h2.232l-3.168,8.281c-1.512,3.985-2.544,6-3.984,7.273c-1.056,0.887-2.064,1.249-2.592,1.344l-0.528-1.752
		c0.528-0.168,1.224-0.504,1.848-1.032c0.576-0.456,1.272-1.272,1.776-2.353c0.096-0.216,0.168-0.384,0.168-0.504
		s-0.048-0.288-0.168-0.552l-4.272-10.705H351.484z"/>
	<path d="M362.02,224.959h2.112V242h-2.112V224.959z"/>
	<path d="M370.037,227.119c0,0.72-0.504,1.296-1.344,1.296c-0.768,0-1.272-0.576-1.272-1.296s0.528-1.32,1.32-1.32
		C369.508,225.799,370.037,226.375,370.037,227.119z M367.684,242v-11.617h2.112V242H367.684z"/>
	<path d="M373.299,233.528c0-1.224-0.024-2.184-0.096-3.145h1.872l0.12,1.92h0.048c0.576-1.08,1.92-2.16,3.84-2.16
		c1.608,0,4.104,0.96,4.104,4.944V242h-2.112v-6.697c0-1.872-0.696-3.432-2.688-3.432c-1.368,0-2.448,0.984-2.833,2.16
		c-0.096,0.264-0.144,0.624-0.144,0.984V242h-2.112V233.528z"/>
	<path d="M396.629,224.959V239c0,1.032,0.048,2.208,0.096,3h-1.872l-0.096-2.016h-0.072c-0.624,1.296-2.016,2.28-3.913,2.28
		c-2.808,0-4.992-2.376-4.992-5.904c-0.024-3.864,2.4-6.216,5.208-6.216c1.8,0,2.976,0.84,3.504,1.752h0.048v-6.937H396.629z
		 M394.541,235.112c0-0.264-0.024-0.624-0.096-0.888c-0.312-1.32-1.464-2.424-3.048-2.424c-2.184,0-3.48,1.92-3.48,4.464
		c0,2.352,1.176,4.296,3.432,4.296c1.416,0,2.712-0.96,3.096-2.521c0.072-0.288,0.096-0.576,0.096-0.912V235.112z"/>
	<path d="M401.332,236.576c0.048,2.856,1.848,4.032,3.984,4.032c1.512,0,2.448-0.264,3.216-0.6l0.384,1.512
		c-0.744,0.337-2.04,0.744-3.888,0.744c-3.576,0-5.712-2.376-5.712-5.88c0-3.504,2.064-6.24,5.448-6.24
		c3.816,0,4.801,3.312,4.801,5.448c0,0.432-0.024,0.744-0.072,0.984H401.332z M407.524,235.064c0.024-1.32-0.552-3.408-2.928-3.408
		c-2.16,0-3.072,1.944-3.24,3.408H407.524z"/>
	<path d="M412.179,234.008c0-1.368-0.024-2.544-0.096-3.625h1.848l0.096,2.304h0.072c0.528-1.56,1.824-2.544,3.24-2.544
		c0.216,0,0.384,0.024,0.576,0.048v1.992c-0.216-0.048-0.432-0.048-0.72-0.048c-1.488,0-2.544,1.104-2.832,2.688
		c-0.048,0.288-0.072,0.648-0.072,0.984V242h-2.112V234.008z"/>
</g>
<g>
	<path d="M220.587,345.396c0.912-0.216,2.376-0.36,3.816-0.36c2.088,0,3.432,0.36,4.416,1.177c0.84,0.624,1.368,1.584,1.368,2.856
		c0,1.584-1.056,2.952-2.736,3.552v0.072c1.536,0.36,3.336,1.632,3.336,4.032c0,1.393-0.552,2.473-1.392,3.24
		c-1.104,1.032-2.928,1.512-5.568,1.512c-1.44,0-2.544-0.096-3.24-0.191V345.396z M222.675,352.021h1.896
		c2.184,0,3.48-1.177,3.48-2.736c0-1.872-1.416-2.641-3.528-2.641c-0.96,0-1.512,0.072-1.848,0.145V352.021z M222.675,359.749
		c0.432,0.072,1.008,0.096,1.752,0.096c2.16,0,4.152-0.792,4.152-3.145c0-2.184-1.896-3.12-4.176-3.12h-1.729V359.749z"/>
	<path d="M234.795,355.908c0.048,2.856,1.848,4.032,3.984,4.032c1.512,0,2.448-0.264,3.216-0.6l0.384,1.512
		c-0.744,0.337-2.04,0.744-3.888,0.744c-3.576,0-5.712-2.376-5.712-5.88c0-3.505,2.064-6.241,5.448-6.241
		c3.816,0,4.801,3.313,4.801,5.449c0,0.432-0.024,0.744-0.072,0.983H234.795z M240.987,354.396c0.024-1.32-0.552-3.408-2.928-3.408
		c-2.16,0-3.072,1.944-3.24,3.408H240.987z"/>
	<path d="M245.354,359.197c0.648,0.384,1.752,0.815,2.808,0.815c1.512,0,2.232-0.744,2.232-1.728c0-1.009-0.6-1.536-2.136-2.112
		c-2.112-0.769-3.096-1.896-3.096-3.288c0-1.873,1.536-3.409,4.008-3.409c1.176,0,2.208,0.313,2.833,0.721l-0.504,1.536
		c-0.456-0.288-1.296-0.696-2.376-0.696c-1.248,0-1.92,0.72-1.92,1.584c0,0.96,0.672,1.393,2.184,1.992
		c1.992,0.744,3.048,1.752,3.048,3.48c0,2.064-1.608,3.504-4.32,3.504c-1.272,0-2.448-0.336-3.265-0.815L245.354,359.197z"/>
	<path d="M263.427,360.925c-0.552,0.265-1.776,0.672-3.336,0.672c-3.504,0-5.785-2.376-5.785-5.928c0-3.577,2.448-6.193,6.241-6.193
		c1.248,0,2.352,0.313,2.928,0.624l-0.48,1.608c-0.504-0.264-1.296-0.552-2.448-0.552c-2.665,0-4.104,1.992-4.104,4.393
		c0,2.688,1.728,4.344,4.032,4.344c1.2,0,1.992-0.288,2.592-0.552L263.427,360.925z"/>
	<path d="M265.898,344.292h2.112v7.272h0.048c0.336-0.601,0.864-1.152,1.512-1.513c0.624-0.359,1.368-0.576,2.16-0.576
		c1.561,0,4.057,0.961,4.057,4.944v6.913h-2.112v-6.673c0-1.872-0.696-3.432-2.688-3.432c-1.368,0-2.424,0.96-2.833,2.088
		c-0.12,0.312-0.144,0.624-0.144,1.008v7.009h-2.112V344.292z"/>
	<path d="M279.218,344.292h2.112v17.041h-2.112V344.292z"/>
	<path d="M286.058,355.908c0.048,2.856,1.848,4.032,3.984,4.032c1.512,0,2.448-0.264,3.216-0.6l0.384,1.512
		c-0.744,0.337-2.04,0.744-3.888,0.744c-3.576,0-5.712-2.376-5.712-5.88c0-3.505,2.064-6.241,5.448-6.241
		c3.816,0,4.801,3.313,4.801,5.449c0,0.432-0.024,0.744-0.072,0.983H286.058z M292.25,354.396c0.024-1.32-0.552-3.408-2.928-3.408
		c-2.16,0-3.072,1.944-3.24,3.408H292.25z"/>
	<path d="M306.627,358.141c0,1.225,0.024,2.28,0.096,3.192h-1.872l-0.12-1.896h-0.048c-0.528,0.937-1.776,2.16-3.84,2.16
		c-1.824,0-4.008-1.032-4.008-5.088v-6.793h2.112v6.409c0,2.208,0.696,3.72,2.592,3.72c1.416,0,2.4-0.984,2.784-1.944
		c0.12-0.288,0.192-0.672,0.192-1.08v-7.104h2.112V358.141z"/>
	<path d="M310.129,352.86c0-1.225-0.024-2.185-0.096-3.145h1.872l0.12,1.92h0.048c0.576-1.08,1.92-2.16,3.84-2.16
		c1.608,0,4.104,0.961,4.104,4.944v6.913h-2.112v-6.696c0-1.872-0.696-3.433-2.688-3.433c-1.368,0-2.448,0.984-2.833,2.16
		c-0.096,0.264-0.144,0.624-0.144,0.984v6.984h-2.112V352.86z"/>
	<path d="M325.802,346.452c0,0.72-0.504,1.296-1.344,1.296c-0.768,0-1.272-0.576-1.272-1.296c0-0.721,0.528-1.32,1.32-1.32
		C325.274,345.132,325.802,345.708,325.802,346.452z M323.45,361.333v-11.617h2.112v11.617H323.45z"/>
	<path d="M339.002,359.629c0,2.688-0.552,4.296-1.656,5.328c-1.152,1.032-2.784,1.393-4.248,1.393c-1.392,0-2.928-0.336-3.865-0.96
		l0.528-1.633c0.768,0.505,1.968,0.937,3.408,0.937c2.16,0,3.744-1.128,3.744-4.08v-1.272h-0.048
		c-0.624,1.08-1.896,1.944-3.696,1.944c-2.88,0-4.944-2.448-4.944-5.665c0-3.936,2.568-6.145,5.256-6.145
		c2.016,0,3.096,1.032,3.625,1.992h0.048l0.072-1.752h1.872c-0.072,0.816-0.096,1.776-0.096,3.169V359.629z M336.89,354.301
		c0-0.36-0.024-0.673-0.12-0.937c-0.384-1.248-1.393-2.256-2.953-2.256c-2.016,0-3.456,1.704-3.456,4.393
		c0,2.279,1.176,4.176,3.432,4.176c1.32,0,2.496-0.816,2.928-2.16c0.12-0.36,0.168-0.768,0.168-1.128V354.301z"/>
	<path d="M352.202,358.141c0,1.225,0.024,2.28,0.096,3.192h-1.872l-0.12-1.896h-0.048c-0.528,0.937-1.776,2.16-3.84,2.16
		c-1.824,0-4.008-1.032-4.008-5.088v-6.793h2.112v6.409c0,2.208,0.696,3.72,2.592,3.72c1.416,0,2.4-0.984,2.784-1.944
		c0.12-0.288,0.192-0.672,0.192-1.08v-7.104h2.112V358.141z"/>
	<path d="M355.705,352.86c0-1.225-0.024-2.185-0.096-3.145h1.872l0.12,1.92h0.048c0.576-1.08,1.92-2.16,3.84-2.16
		c1.608,0,4.104,0.961,4.104,4.944v6.913h-2.112v-6.696c0-1.872-0.696-3.433-2.688-3.433c-1.368,0-2.448,0.984-2.833,2.16
		c-0.096,0.264-0.144,0.624-0.144,0.984v6.984h-2.112V352.86z"/>
	<path d="M378.962,359.629c0,2.688-0.552,4.296-1.656,5.328c-1.152,1.032-2.784,1.393-4.248,1.393c-1.392,0-2.928-0.336-3.865-0.96
		l0.528-1.633c0.768,0.505,1.968,0.937,3.408,0.937c2.16,0,3.744-1.128,3.744-4.08v-1.272h-0.048
		c-0.624,1.08-1.896,1.944-3.696,1.944c-2.88,0-4.944-2.448-4.944-5.665c0-3.936,2.568-6.145,5.256-6.145
		c2.016,0,3.096,1.032,3.625,1.992h0.048l0.072-1.752h1.872c-0.072,0.816-0.096,1.776-0.096,3.169V359.629z M376.85,354.301
		c0-0.36-0.024-0.673-0.12-0.937c-0.384-1.248-1.393-2.256-2.953-2.256c-2.016,0-3.456,1.704-3.456,4.393
		c0,2.279,1.176,4.176,3.432,4.176c1.32,0,2.496-0.816,2.928-2.16c0.12-0.36,0.168-0.768,0.168-1.128V354.301z"/>
	<path d="M382.152,359.197c0.648,0.384,1.752,0.815,2.808,0.815c1.512,0,2.232-0.744,2.232-1.728c0-1.009-0.6-1.536-2.136-2.112
		c-2.112-0.769-3.096-1.896-3.096-3.288c0-1.873,1.536-3.409,4.008-3.409c1.176,0,2.208,0.313,2.833,0.721l-0.504,1.536
		c-0.456-0.288-1.296-0.696-2.376-0.696c-1.248,0-1.92,0.72-1.92,1.584c0,0.96,0.672,1.393,2.184,1.992
		c1.992,0.744,3.048,1.752,3.048,3.48c0,2.064-1.608,3.504-4.32,3.504c-1.272,0-2.448-0.336-3.265-0.815L382.152,359.197z"/>
	<path d="M391.656,359.197c0.648,0.384,1.752,0.815,2.808,0.815c1.512,0,2.232-0.744,2.232-1.728c0-1.009-0.6-1.536-2.136-2.112
		c-2.112-0.769-3.096-1.896-3.096-3.288c0-1.873,1.536-3.409,4.008-3.409c1.176,0,2.208,0.313,2.833,0.721l-0.504,1.536
		c-0.456-0.288-1.296-0.696-2.376-0.696c-1.248,0-1.92,0.72-1.92,1.584c0,0.96,0.672,1.393,2.184,1.992
		c1.992,0.744,3.048,1.752,3.048,3.48c0,2.064-1.608,3.504-4.32,3.504c-1.272,0-2.448-0.336-3.265-0.815L391.656,359.197z"/>
	<path d="M401.448,353.509c0-1.488-0.048-2.688-0.096-3.793h1.872l0.12,1.992h0.048c0.84-1.416,2.232-2.232,4.128-2.232
		c2.832,0,4.944,2.377,4.944,5.881c0,4.177-2.568,6.24-5.304,6.24c-1.536,0-2.88-0.672-3.577-1.824h-0.048v6.313h-2.088V353.509z
		 M403.536,356.604c0,0.313,0.024,0.601,0.096,0.864c0.384,1.464,1.656,2.472,3.168,2.472c2.232,0,3.528-1.823,3.528-4.488
		c0-2.304-1.224-4.296-3.456-4.296c-1.44,0-2.809,1.008-3.192,2.592c-0.072,0.265-0.144,0.576-0.144,0.841V356.604z"/>
	<path d="M423.265,358.549c0,1.008,0.048,1.992,0.168,2.784h-1.896l-0.168-1.464h-0.072c-0.648,0.912-1.896,1.728-3.552,1.728
		c-2.353,0-3.553-1.656-3.553-3.336c0-2.809,2.497-4.345,6.985-4.32v-0.24c0-0.936-0.264-2.688-2.64-2.664
		c-1.104,0-2.232,0.312-3.048,0.864l-0.48-1.416c0.96-0.601,2.376-1.009,3.84-1.009c3.552,0,4.417,2.425,4.417,4.729V358.549z
		 M421.225,355.404c-2.304-0.048-4.92,0.36-4.92,2.616c0,1.393,0.912,2.017,1.968,2.017c1.536,0,2.52-0.96,2.856-1.944
		c0.072-0.24,0.096-0.48,0.096-0.672V355.404z"/>
	<path d="M426.671,352.86c0-1.225-0.024-2.185-0.096-3.145h1.872l0.12,1.92h0.048c0.576-1.08,1.92-2.16,3.84-2.16
		c1.608,0,4.104,0.961,4.104,4.944v6.913h-2.112v-6.696c0-1.872-0.696-3.433-2.688-3.433c-1.368,0-2.448,0.984-2.833,2.16
		c-0.096,0.264-0.144,0.624-0.144,0.984v6.984h-2.112V352.86z"/>
	<path d="M439.992,352.86c0-1.225-0.024-2.185-0.096-3.145h1.872l0.12,1.92h0.048c0.576-1.08,1.92-2.16,3.84-2.16
		c1.608,0,4.104,0.961,4.104,4.944v6.913h-2.112v-6.696c0-1.872-0.696-3.433-2.688-3.433c-1.368,0-2.448,0.984-2.833,2.16
		c-0.096,0.264-0.144,0.624-0.144,0.984v6.984h-2.112V352.86z"/>
	<path d="M463.032,358.141c0,1.225,0.024,2.28,0.096,3.192h-1.872l-0.12-1.896h-0.048c-0.528,0.937-1.776,2.16-3.84,2.16
		c-1.824,0-4.008-1.032-4.008-5.088v-6.793h2.112v6.409c0,2.208,0.696,3.72,2.592,3.72c1.416,0,2.4-0.984,2.784-1.944
		c0.12-0.288,0.192-0.672,0.192-1.08v-7.104h2.112V358.141z"/>
	<path d="M466.535,352.86c0-1.225-0.024-2.185-0.096-3.145h1.872l0.12,1.92h0.048c0.576-1.08,1.92-2.16,3.84-2.16
		c1.608,0,4.104,0.961,4.104,4.944v6.913h-2.112v-6.696c0-1.872-0.696-3.433-2.688-3.433c-1.368,0-2.448,0.984-2.833,2.16
		c-0.096,0.264-0.144,0.624-0.144,0.984v6.984h-2.112V352.86z"/>
	<path d="M489.792,359.629c0,2.688-0.552,4.296-1.656,5.328c-1.152,1.032-2.784,1.393-4.248,1.393c-1.392,0-2.928-0.336-3.865-0.96
		l0.528-1.633c0.768,0.505,1.968,0.937,3.408,0.937c2.16,0,3.744-1.128,3.744-4.08v-1.272h-0.048
		c-0.624,1.08-1.896,1.944-3.696,1.944c-2.88,0-4.944-2.448-4.944-5.665c0-3.936,2.568-6.145,5.256-6.145
		c2.016,0,3.096,1.032,3.625,1.992h0.048l0.072-1.752h1.872c-0.072,0.816-0.096,1.776-0.096,3.169V359.629z M487.68,354.301
		c0-0.36-0.024-0.673-0.12-0.937c-0.384-1.248-1.393-2.256-2.953-2.256c-2.016,0-3.456,1.704-3.456,4.393
		c0,2.279,1.176,4.176,3.432,4.176c1.32,0,2.496-0.816,2.928-2.16c0.12-0.36,0.168-0.768,0.168-1.128V354.301z"/>
	<path d="M502.391,345.155l-1.824,9.577c-0.12,0.672-0.192,1.368-0.192,2.04c0,2.064,1.2,3.12,3,3.12
		c2.208,0,3.816-1.488,4.512-5.136l1.848-9.602h1.992l-1.848,9.673c-0.936,4.825-3.336,6.769-6.769,6.769
		c-2.664,0-4.728-1.439-4.728-4.776c0-0.695,0.072-1.488,0.216-2.231l1.8-9.434H502.391z"/>
	<path d="M512.825,354.549h1.566v5.474h0.036c0.558-0.972,1.566-1.584,2.971-1.584c2.179,0,3.691,1.801,3.691,4.429
		c0,3.115-1.981,4.664-3.925,4.664c-1.26,0-2.269-0.486-2.935-1.621h-0.036l-0.09,1.423h-1.351c0.036-0.594,0.072-1.477,0.072-2.251
		V354.549z M514.391,363.84c0,0.198,0.018,0.396,0.072,0.576c0.288,1.099,1.224,1.854,2.376,1.854c1.674,0,2.647-1.351,2.647-3.349
		c0-1.747-0.9-3.241-2.611-3.241c-1.063,0-2.071,0.756-2.395,1.944c-0.054,0.198-0.09,0.414-0.09,0.666V363.84z"/>
	<path d="M318.73,371.45c-1.46,1.98-2.5,4.561-2.5,8.201c0,3.562,1.1,6.102,2.5,8.103h-1.36c-1.26-1.661-2.621-4.222-2.621-8.122
		c0.02-3.921,1.36-6.501,2.621-8.182H318.73z"/>
	<path d="M323.87,373.971h-0.04l-2.261,1.22l-0.34-1.34l2.84-1.521h1.5v13.003h-1.7V373.971z"/>
	<path d="M338.971,378.691c0,4.421-1.66,6.861-4.521,6.861c-2.541,0-4.281-2.38-4.321-6.681c0-4.382,1.9-6.762,4.541-6.762
		C337.391,372.11,338.971,374.551,338.971,378.691z M331.909,378.892c0,3.381,1.04,5.301,2.641,5.301c1.78,0,2.641-2.1,2.641-5.421
		c0-3.2-0.8-5.301-2.641-5.301C333.029,373.471,331.909,375.351,331.909,378.892z"/>
	<path d="M349.23,378.691c0,4.421-1.66,6.861-4.521,6.861c-2.541,0-4.281-2.38-4.321-6.681c0-4.382,1.9-6.762,4.541-6.762
		C347.65,372.11,349.23,374.551,349.23,378.691z M342.169,378.892c0,3.381,1.04,5.301,2.641,5.301c1.78,0,2.641-2.1,2.641-5.421
		c0-3.2-0.8-5.301-2.641-5.301C343.289,373.471,342.169,375.351,342.169,378.892z"/>
	<path d="M359.709,379.292v1.28h-4.941v-1.28H359.709z"/>
	<path d="M373.209,373.811h-4.961l-0.5,3.341c0.3-0.04,0.58-0.061,1.06-0.061c1.021,0,2,0.2,2.801,0.7
		c1.02,0.561,1.86,1.701,1.86,3.321c0,2.54-2.021,4.44-4.841,4.44c-1.42,0-2.601-0.399-3.241-0.8l0.44-1.341
		c0.54,0.32,1.601,0.721,2.801,0.721c1.64,0,3.081-1.08,3.061-2.82c0-1.681-1.14-2.861-3.721-2.861c-0.76,0-1.34,0.061-1.82,0.12
		l0.84-6.241h6.221V373.811z"/>
	<path d="M384.369,378.691c0,4.421-1.66,6.861-4.521,6.861c-2.541,0-4.281-2.38-4.321-6.681c0-4.382,1.9-6.762,4.541-6.762
		C382.789,372.11,384.369,374.551,384.369,378.691z M377.308,378.892c0,3.381,1.04,5.301,2.641,5.301c1.78,0,2.641-2.1,2.641-5.421
		c0-3.2-0.8-5.301-2.641-5.301C378.428,373.471,377.308,375.351,377.308,378.892z"/>
	<path d="M394.629,378.691c0,4.421-1.66,6.861-4.521,6.861c-2.541,0-4.281-2.38-4.321-6.681c0-4.382,1.9-6.762,4.541-6.762
		C393.049,372.11,394.629,374.551,394.629,378.691z M387.567,378.892c0,3.381,1.04,5.301,2.641,5.301c1.78,0,2.641-2.1,2.641-5.421
		c0-3.2-0.8-5.301-2.641-5.301C388.688,373.471,387.567,375.351,387.567,378.892z"/>
	<path d="M404.889,378.691c0,4.421-1.66,6.861-4.521,6.861c-2.541,0-4.281-2.38-4.321-6.681c0-4.382,1.9-6.762,4.541-6.762
		C403.309,372.11,404.889,374.551,404.889,378.691z M397.827,378.892c0,3.381,1.04,5.301,2.641,5.301c1.78,0,2.641-2.1,2.641-5.421
		c0-3.2-0.8-5.301-2.641-5.301C398.947,373.471,397.827,375.351,397.827,378.892z"/>
	<path d="M413.587,385.333l-4.421-13.482h1.9l2.101,6.641c0.56,1.82,1.06,3.461,1.44,5.041h0.04c0.38-1.56,0.92-3.261,1.541-5.021
		l2.28-6.661h1.86l-4.821,13.482H413.587z"/>
	<path d="M421.766,387.754c1.4-1.98,2.5-4.562,2.5-8.162s-1.08-6.142-2.5-8.142h1.36c1.26,1.641,2.621,4.221,2.621,8.142
		c-0.02,3.921-1.36,6.481-2.621,8.162H421.766z"/>
</g>
<g>
	<path d="M82.828,27.28c-0.936,0.36-2.808,0.888-4.992,0.888c-2.448,0-4.464-0.624-6.049-2.136
		c-1.392-1.344-2.256-3.504-2.256-6.024c0-4.824,3.336-8.353,8.761-8.353c1.872,0,3.36,0.408,4.056,0.744l-0.528,1.705
		c-0.864-0.408-1.944-0.696-3.577-0.696c-3.936,0-6.504,2.448-6.504,6.504c0,4.104,2.448,6.529,6.241,6.529
		c1.368,0,2.304-0.192,2.784-0.432v-4.824H77.5v-1.68h5.328V27.28z"/>
	<path d="M85.923,10.959h2.112V28h-2.112V10.959z"/>
	<path d="M101.308,24.808c0,1.224,0.024,2.28,0.096,3.192h-1.872l-0.12-1.896h-0.048c-0.528,0.936-1.776,2.16-3.84,2.16
		c-1.824,0-4.008-1.032-4.008-5.088v-6.793h2.112v6.409c0,2.208,0.696,3.72,2.592,3.72c1.416,0,2.4-0.984,2.784-1.944
		c0.12-0.288,0.192-0.672,0.192-1.08v-7.105h2.112V24.808z M93.099,13.095c0-0.672,0.528-1.224,1.224-1.224
		c0.648,0,1.152,0.528,1.152,1.224c0,0.648-0.48,1.224-1.2,1.224C93.604,14.319,93.099,13.743,93.099,13.095z M97.54,13.095
		c0-0.672,0.528-1.224,1.2-1.224s1.176,0.528,1.176,1.224c0,0.648-0.48,1.224-1.2,1.224C98.02,14.319,97.54,13.743,97.54,13.095z"/>
	<path d="M104.811,10.959h2.112v7.272h0.048c0.336-0.6,0.864-1.152,1.512-1.512c0.624-0.36,1.368-0.576,2.16-0.576
		c1.561,0,4.057,0.96,4.057,4.944V28h-2.112v-6.672c0-1.873-0.696-3.433-2.688-3.433c-1.368,0-2.424,0.96-2.833,2.088
		c-0.12,0.312-0.144,0.624-0.144,1.008V28h-2.112V10.959z"/>
	<path d="M118.659,16.383l1.56,5.905c0.312,1.296,0.624,2.496,0.84,3.696h0.072c0.264-1.176,0.648-2.424,1.032-3.672l1.896-5.929
		h1.776l1.8,5.809c0.432,1.392,0.768,2.616,1.032,3.792h0.072c0.192-1.176,0.504-2.4,0.888-3.769l1.656-5.833h2.088L129.628,28
		h-1.92l-1.776-5.544c-0.408-1.296-0.744-2.448-1.032-3.816h-0.048c-0.288,1.392-0.648,2.592-1.056,3.84L121.923,28h-1.92
		l-3.504-11.617H118.659z"/>
	<path d="M136.418,22.576c0.048,2.856,1.848,4.032,3.984,4.032c1.512,0,2.448-0.264,3.216-0.6l0.384,1.512
		c-0.744,0.336-2.04,0.744-3.888,0.744c-3.576,0-5.712-2.376-5.712-5.881c0-3.504,2.064-6.24,5.448-6.24
		c3.816,0,4.801,3.312,4.801,5.448c0,0.432-0.024,0.744-0.072,0.984H136.418z M142.611,21.064c0.024-1.32-0.552-3.408-2.928-3.408
		c-2.16,0-3.072,1.944-3.24,3.408H142.611z"/>
	<path d="M147.267,19.528c0-1.224-0.024-2.184-0.096-3.145h1.872l0.12,1.92h0.048c0.576-1.08,1.92-2.16,3.84-2.16
		c1.608,0,4.104,0.96,4.104,4.944V28h-2.112v-6.697c0-1.872-0.696-3.432-2.688-3.432c-1.368,0-2.448,0.984-2.833,2.16
		c-0.096,0.264-0.144,0.624-0.144,0.984V28h-2.112V19.528z"/>
	<path d="M170.595,10.959V25c0,1.032,0.048,2.208,0.096,3h-1.872l-0.096-2.016h-0.072c-0.624,1.296-2.016,2.28-3.913,2.28
		c-2.808,0-4.992-2.376-4.992-5.905c-0.024-3.864,2.4-6.216,5.208-6.216c1.8,0,2.976,0.84,3.504,1.752h0.048v-6.937H170.595z
		 M168.507,21.112c0-0.264-0.024-0.624-0.096-0.888c-0.312-1.32-1.464-2.424-3.048-2.424c-2.184,0-3.48,1.92-3.48,4.464
		c0,2.352,1.176,4.296,3.432,4.296c1.416,0,2.712-0.96,3.096-2.521c0.072-0.288,0.096-0.576,0.096-0.912V21.112z"/>
	<path d="M175.298,22.576c0.048,2.856,1.848,4.032,3.984,4.032c1.512,0,2.448-0.264,3.216-0.6l0.384,1.512
		c-0.744,0.336-2.04,0.744-3.888,0.744c-3.576,0-5.712-2.376-5.712-5.881c0-3.504,2.064-6.24,5.448-6.24
		c3.816,0,4.801,3.312,4.801,5.448c0,0.432-0.024,0.744-0.072,0.984H175.298z M181.491,21.064c0.024-1.32-0.552-3.408-2.928-3.408
		c-2.16,0-3.072,1.944-3.24,3.408H181.491z"/>
	<path d="M186.146,10.959h2.112V28h-2.112V10.959z"/>
</g>
<g>
	<path d="M5.469,130.339v6.769h7.825v-6.769h2.112v16.177h-2.112v-7.584H5.469v7.584H3.357v-16.177H5.469z"/>
	<path d="M20.133,141.092c0.048,2.856,1.848,4.032,3.984,4.032c1.512,0,2.448-0.264,3.216-0.6l0.384,1.512
		c-0.744,0.336-2.04,0.744-3.888,0.744c-3.576,0-5.712-2.376-5.712-5.881c0-3.504,2.064-6.24,5.448-6.24
		c3.816,0,4.801,3.312,4.801,5.448c0,0.432-0.024,0.744-0.072,0.984H20.133z M26.326,139.58c0.024-1.32-0.552-3.408-2.928-3.408
		c-2.16,0-3.072,1.944-3.24,3.408H26.326z"/>
	<path d="M33.333,131.635c0,0.72-0.504,1.296-1.344,1.296c-0.768,0-1.272-0.576-1.272-1.296s0.528-1.32,1.32-1.32
		C32.805,130.315,33.333,130.891,33.333,131.635z M30.981,146.516v-11.617h2.112v11.617H30.981z"/>
	<path d="M35.277,145.292l5.232-6.841c0.528-0.648,1.008-1.2,1.536-1.824v-0.048h-6.289v-1.68h8.833v1.32l-5.184,6.745
		c-0.504,0.648-0.96,1.248-1.488,1.824v0.048h6.769v1.68h-9.409V145.292z"/>
	<path d="M46.581,144.38c0.648,0.384,1.752,0.816,2.808,0.816c1.512,0,2.232-0.744,2.232-1.728c0-1.008-0.6-1.536-2.136-2.112
		c-2.112-0.768-3.096-1.896-3.096-3.288c0-1.872,1.536-3.408,4.008-3.408c1.176,0,2.208,0.312,2.833,0.72l-0.504,1.536
		c-0.456-0.288-1.296-0.696-2.376-0.696c-1.248,0-1.92,0.72-1.92,1.584c0,0.96,0.672,1.392,2.184,1.992
		c1.992,0.744,3.048,1.752,3.048,3.48c0,2.064-1.608,3.504-4.321,3.504c-1.272,0-2.448-0.336-3.264-0.816L46.581,144.38z"/>
	<path d="M56.373,138.691c0-1.488-0.048-2.688-0.096-3.792h1.872l0.12,1.992h0.048c0.84-1.416,2.232-2.232,4.128-2.232
		c2.832,0,4.944,2.376,4.944,5.88c0,4.176-2.568,6.241-5.304,6.241c-1.536,0-2.88-0.672-3.577-1.824h-0.048v6.313h-2.088V138.691z
		 M58.461,141.788c0,0.312,0.024,0.6,0.096,0.864c0.384,1.464,1.656,2.472,3.168,2.472c2.232,0,3.528-1.824,3.528-4.488
		c0-2.304-1.224-4.296-3.456-4.296c-1.44,0-2.809,1.008-3.192,2.592c-0.072,0.264-0.144,0.576-0.144,0.84V141.788z"/>
	<path d="M78.189,143.732c0,1.008,0.048,1.992,0.168,2.784h-1.896l-0.168-1.464h-0.072c-0.648,0.912-1.896,1.729-3.552,1.729
		c-2.353,0-3.553-1.656-3.553-3.336c0-2.808,2.497-4.344,6.985-4.32v-0.24c0-0.936-0.264-2.688-2.64-2.664
		c-1.104,0-2.232,0.312-3.048,0.864l-0.48-1.417c0.96-0.6,2.376-1.008,3.84-1.008c3.552,0,4.417,2.424,4.417,4.729V143.732z
		 M76.149,140.587c-2.304-0.048-4.92,0.36-4.92,2.616c0,1.392,0.912,2.017,1.968,2.017c1.536,0,2.52-0.96,2.856-1.944
		c0.072-0.24,0.096-0.48,0.096-0.672V140.587z"/>
	<path d="M81.596,138.043c0-1.224-0.024-2.184-0.096-3.145h1.872l0.12,1.92h0.048c0.576-1.08,1.92-2.16,3.84-2.16
		c1.608,0,4.104,0.96,4.104,4.944v6.913h-2.112v-6.697c0-1.872-0.696-3.432-2.688-3.432c-1.368,0-2.448,0.984-2.833,2.16
		c-0.096,0.264-0.144,0.624-0.144,0.984v6.984h-2.112V138.043z"/>
	<path d="M94.916,138.043c0-1.224-0.024-2.184-0.096-3.145h1.872l0.12,1.92h0.048c0.576-1.08,1.92-2.16,3.84-2.16
		c1.608,0,4.104,0.96,4.104,4.944v6.913h-2.112v-6.697c0-1.872-0.696-3.432-2.688-3.432c-1.368,0-2.448,0.984-2.833,2.16
		c-0.096,0.264-0.144,0.624-0.144,0.984v6.984h-2.112V138.043z"/>
	<path d="M117.957,143.324c0,1.224,0.024,2.28,0.096,3.192h-1.872l-0.12-1.896h-0.048c-0.528,0.936-1.776,2.16-3.84,2.16
		c-1.824,0-4.008-1.032-4.008-5.088v-6.793h2.112v6.409c0,2.208,0.696,3.72,2.592,3.72c1.416,0,2.4-0.984,2.784-1.944
		c0.12-0.288,0.192-0.672,0.192-1.08v-7.105h2.112V143.324z"/>
	<path d="M121.46,138.043c0-1.224-0.024-2.184-0.096-3.145h1.872l0.12,1.92h0.048c0.576-1.08,1.92-2.16,3.84-2.16
		c1.608,0,4.104,0.96,4.104,4.944v6.913h-2.112v-6.697c0-1.872-0.696-3.432-2.688-3.432c-1.368,0-2.448,0.984-2.833,2.16
		c-0.096,0.264-0.144,0.624-0.144,0.984v6.984h-2.112V138.043z"/>
	<path d="M144.717,144.812c0,2.688-0.552,4.296-1.656,5.329c-1.152,1.032-2.784,1.392-4.248,1.392c-1.392,0-2.928-0.336-3.864-0.96
		l0.528-1.632c0.768,0.504,1.968,0.936,3.408,0.936c2.16,0,3.745-1.128,3.745-4.081v-1.272h-0.048
		c-0.624,1.08-1.896,1.944-3.696,1.944c-2.88,0-4.944-2.448-4.944-5.665c0-3.937,2.568-6.145,5.256-6.145
		c2.016,0,3.096,1.032,3.625,1.992h0.048l0.072-1.752h1.872c-0.072,0.816-0.096,1.776-0.096,3.168V144.812z M142.604,139.483
		c0-0.36-0.024-0.672-0.12-0.936c-0.384-1.248-1.392-2.256-2.953-2.256c-2.016,0-3.456,1.705-3.456,4.393
		c0,2.28,1.176,4.176,3.432,4.176c1.32,0,2.496-0.816,2.928-2.16c0.12-0.36,0.168-0.768,0.168-1.128V139.483z"/>
	<path d="M35.512,156.633c-1.46,1.98-2.5,4.561-2.5,8.202c0,3.561,1.1,6.101,2.5,8.102h-1.36c-1.26-1.66-2.621-4.221-2.621-8.122
		c0.02-3.921,1.36-6.501,2.621-8.182H35.512z"/>
	<path d="M45.493,163.875c0,4.421-1.66,6.862-4.521,6.862c-2.541,0-4.281-2.381-4.321-6.682c0-4.381,1.9-6.761,4.541-6.761
		C43.913,157.293,45.493,159.734,45.493,163.875z M38.431,164.075c0,3.381,1.04,5.301,2.641,5.301c1.78,0,2.641-2.101,2.641-5.421
		c0-3.201-0.8-5.301-2.641-5.301C39.551,158.654,38.431,160.534,38.431,164.075z"/>
	<path d="M55.971,164.475v1.28H51.03v-1.28H55.971z"/>
	<path d="M69.131,158.753c-0.36-0.02-0.82,0.02-1.32,0.1c-2.781,0.44-4.221,2.44-4.521,4.601h0.04c0.62-0.84,1.72-1.521,3.161-1.521
		c2.301,0,3.921,1.681,3.921,4.201c0,2.4-1.62,4.601-4.341,4.601c-2.761,0-4.581-2.161-4.581-5.542c0-2.561,0.9-4.581,2.201-5.861
		c1.08-1.06,2.521-1.72,4.161-1.92c0.52-0.08,0.96-0.1,1.28-0.1V158.753z M68.631,166.255c0-1.86-1.061-2.981-2.681-2.981
		c-1.06,0-2.061,0.64-2.541,1.601c-0.1,0.2-0.18,0.44-0.18,0.76c0.02,2.14,1.021,3.741,2.881,3.741
		C67.611,169.376,68.631,168.116,68.631,166.255z"/>
	<path d="M71.39,172.997c0.44-1.2,0.98-3.341,1.2-4.801l1.96-0.2c-0.48,1.7-1.36,3.921-1.92,4.861L71.39,172.997z"/>
	<path d="M76.529,168.516c0.5,0.3,1.64,0.8,2.88,0.8c2.241,0,2.961-1.42,2.941-2.521c-0.02-1.82-1.661-2.601-3.361-2.601h-0.98
		v-1.32h0.98c1.28,0,2.901-0.66,2.901-2.201c0-1.04-0.66-1.96-2.281-1.96c-1.04,0-2.041,0.46-2.601,0.86l-0.48-1.28
		c0.7-0.5,2.021-1,3.421-1c2.561,0,3.721,1.52,3.721,3.101c0,1.36-0.82,2.5-2.4,3.081v0.04c1.6,0.3,2.88,1.5,2.9,3.321
		c0,2.081-1.64,3.901-4.741,3.901c-1.46,0-2.74-0.46-3.38-0.88L76.529,168.516z"/>
	<path d="M93.47,170.516l-4.421-13.483h1.9l2.101,6.642c0.56,1.82,1.06,3.46,1.44,5.041h0.04c0.38-1.561,0.92-3.261,1.541-5.021
		l2.28-6.662h1.86l-4.821,13.483H93.47z"/>
	<path d="M101.129,166.315c-0.06-2,1-3.021,2.381-3.021c0.84,0,1.48,0.26,2.84,0.9c1,0.48,1.741,0.84,2.48,0.84
		c0.72,0,1.061-0.581,1.081-1.681h1.18c0.1,2.221-1.04,3.021-2.281,3.021c-0.8,0-1.52-0.24-2.9-0.88c-0.94-0.46-1.68-0.88-2.4-0.88
		s-1.16,0.5-1.18,1.701H101.129z"/>
	<path d="M112.469,172.937c1.4-1.98,2.5-4.561,2.5-8.162s-1.08-6.141-2.5-8.142h1.36c1.26,1.64,2.621,4.221,2.621,8.142
		c-0.02,3.921-1.36,6.481-2.621,8.162H112.469z"/>
</g>
<g>
	<path d="M545.44,87.984l-1.68,5.088h-2.16l5.521-16.177h2.496l5.521,16.177h-2.232l-1.729-5.088H545.44z M550.769,86.352
		l-1.608-4.656c-0.36-1.056-0.6-2.016-0.84-2.952h-0.048c-0.24,0.936-0.48,1.944-0.816,2.928l-1.584,4.68H550.769z"/>
	<path d="M557.368,84.6c0-1.224-0.024-2.184-0.096-3.145h1.872l0.12,1.92h0.048c0.576-1.08,1.92-2.16,3.84-2.16
		c1.608,0,4.104,0.96,4.104,4.944v6.913h-2.112v-6.697c0-1.872-0.696-3.432-2.688-3.432c-1.368,0-2.448,0.984-2.833,2.16
		c-0.096,0.264-0.144,0.624-0.144,0.984v6.984h-2.112V84.6z"/>
	<path d="M581.201,87.168c0,4.296-3,6.168-5.785,6.168c-3.12,0-5.568-2.304-5.568-5.977c0-3.864,2.568-6.145,5.76-6.145
		C578.945,81.215,581.201,83.64,581.201,87.168z M572.008,87.288c0,2.544,1.44,4.464,3.504,4.464c2.016,0,3.528-1.896,3.528-4.512
		c0-1.968-0.984-4.44-3.48-4.44C573.088,82.799,572.008,85.104,572.008,87.288z"/>
	<path d="M593.873,76.031v14.041c0,1.032,0.048,2.208,0.096,3h-1.872L592,91.056h-0.072c-0.624,1.296-2.016,2.28-3.913,2.28
		c-2.808,0-4.992-2.376-4.992-5.905c-0.024-3.864,2.4-6.216,5.208-6.216c1.8,0,2.976,0.84,3.504,1.752h0.048v-6.937H593.873z
		 M591.785,86.184c0-0.264-0.024-0.624-0.096-0.888c-0.312-1.32-1.464-2.424-3.048-2.424c-2.185,0-3.48,1.92-3.48,4.464
		c0,2.352,1.176,4.296,3.432,4.296c1.416,0,2.712-0.96,3.096-2.521c0.072-0.288,0.096-0.576,0.096-0.912V86.184z"/>
	<path d="M598.576,87.648c0.048,2.856,1.848,4.032,3.984,4.032c1.512,0,2.448-0.264,3.216-0.6l0.384,1.512
		c-0.744,0.336-2.04,0.744-3.888,0.744c-3.576,0-5.712-2.376-5.712-5.881c0-3.504,2.064-6.24,5.448-6.24
		c3.816,0,4.801,3.312,4.801,5.448c0,0.432-0.024,0.744-0.072,0.984H598.576z M604.769,86.136c0.024-1.32-0.552-3.408-2.928-3.408
		c-2.16,0-3.072,1.944-3.24,3.408H604.769z"/>
</g>
<g>
</g>
<g>
	<g>
		<line fill="none" stroke="#1291D0" stroke-width="8" x1="507.215" y1="152.412" x2="767.177" y2="152.411"/>
		<g>
			<polygon fill="#1291D0" points="748.621,175.314 744.802,171.212 765.027,152.416 744.802,133.615 748.621,129.513 
				773.25,152.416 			"/>
		</g>
	</g>
</g>
<g>
	<path d="M581.177,171.399h-6.265v5.833h7.009v1.752H572.8v-16.177h8.761v1.752h-6.649v5.112h6.265V171.399z"/>
	<path d="M584.56,161.942h2.112v17.042h-2.112V161.942z"/>
	<path d="M591.4,173.56c0.048,2.856,1.848,4.032,3.985,4.032c1.512,0,2.447-0.264,3.216-0.6l0.384,1.512
		c-0.744,0.336-2.04,0.744-3.888,0.744c-3.577,0-5.713-2.376-5.713-5.881c0-3.504,2.064-6.24,5.448-6.24
		c3.816,0,4.801,3.312,4.801,5.448c0,0.432-0.024,0.744-0.072,0.984H591.4z M597.593,172.047c0.023-1.32-0.553-3.408-2.929-3.408
		c-2.16,0-3.072,1.944-3.24,3.408H597.593z"/>
	<path d="M604.336,172.695h0.048c0.288-0.408,0.672-0.912,1.008-1.32l3.433-4.008h2.52l-4.464,4.776l5.112,6.841h-2.593
		l-3.983-5.568l-1.08,1.2v4.368h-2.089v-17.042h2.089V172.695z"/>
	<path d="M616.047,164.583v2.784h3.024v1.608h-3.024v6.265c0,1.44,0.408,2.256,1.585,2.256c0.576,0,0.912-0.048,1.224-0.144
		l0.096,1.608c-0.407,0.144-1.056,0.288-1.872,0.288c-0.983,0-1.775-0.336-2.28-0.888c-0.575-0.648-0.815-1.68-0.815-3.048v-6.336
		h-1.801v-1.608h1.801v-2.16L616.047,164.583z"/>
	<path d="M621.447,170.991c0-1.368-0.023-2.544-0.096-3.625h1.848l0.097,2.304h0.071c0.528-1.56,1.824-2.544,3.24-2.544
		c0.217,0,0.385,0.024,0.576,0.048v1.992c-0.216-0.048-0.432-0.048-0.72-0.048c-1.488,0-2.544,1.104-2.832,2.688
		c-0.048,0.288-0.072,0.648-0.072,0.984v6.192h-2.112V170.991z"/>
	<path d="M639.567,173.08c0,4.296-3,6.168-5.784,6.168c-3.12,0-5.568-2.304-5.568-5.977c0-3.864,2.568-6.145,5.761-6.145
		C637.312,167.127,639.567,169.551,639.567,173.08z M630.375,173.199c0,2.544,1.44,4.464,3.504,4.464
		c2.017,0,3.528-1.896,3.528-4.512c0-1.968-0.983-4.44-3.479-4.44C631.455,168.711,630.375,171.015,630.375,173.199z"/>
	<path d="M642.23,170.511c0-1.224-0.023-2.184-0.096-3.145h1.872l0.12,1.92h0.048c0.576-1.08,1.92-2.16,3.841-2.16
		c1.607,0,4.104,0.96,4.104,4.944v6.913h-2.111v-6.697c0-1.872-0.696-3.432-2.688-3.432c-1.368,0-2.448,0.984-2.832,2.16
		c-0.097,0.264-0.145,0.624-0.145,0.984v6.984h-2.112V170.511z"/>
	<path d="M656.728,173.56c0.048,2.856,1.848,4.032,3.983,4.032c1.513,0,2.448-0.264,3.217-0.6l0.384,1.512
		c-0.744,0.336-2.04,0.744-3.888,0.744c-3.577,0-5.713-2.376-5.713-5.881c0-3.504,2.064-6.24,5.448-6.24
		c3.816,0,4.801,3.312,4.801,5.448c0,0.432-0.024,0.744-0.072,0.984H656.728z M662.92,172.047c0.023-1.32-0.553-3.408-2.929-3.408
		c-2.16,0-3.072,1.944-3.24,3.408H662.92z"/>
	<path d="M667.574,170.511c0-1.224-0.023-2.184-0.096-3.145h1.872l0.12,1.92h0.048c0.576-1.08,1.92-2.16,3.841-2.16
		c1.607,0,4.104,0.96,4.104,4.944v6.913h-2.111v-6.697c0-1.872-0.696-3.432-2.688-3.432c-1.368,0-2.448,0.984-2.832,2.16
		c-0.097,0.264-0.145,0.624-0.145,0.984v6.984h-2.112V170.511z"/>
	<path d="M680.606,176.848c0.648,0.384,1.752,0.816,2.809,0.816c1.512,0,2.232-0.744,2.232-1.728c0-1.008-0.601-1.536-2.137-2.112
		c-2.112-0.768-3.096-1.896-3.096-3.288c0-1.872,1.536-3.408,4.008-3.408c1.177,0,2.208,0.312,2.832,0.72l-0.504,1.536
		c-0.456-0.288-1.296-0.696-2.376-0.696c-1.248,0-1.92,0.72-1.92,1.584c0,0.96,0.672,1.392,2.184,1.992
		c1.992,0.744,3.049,1.752,3.049,3.48c0,2.064-1.608,3.504-4.32,3.504c-1.272,0-2.448-0.336-3.265-0.816L680.606,176.848z"/>
	<path d="M692.942,164.583v2.784h3.024v1.608h-3.024v6.265c0,1.44,0.408,2.256,1.585,2.256c0.576,0,0.912-0.048,1.224-0.144
		l0.096,1.608c-0.407,0.144-1.056,0.288-1.872,0.288c-0.983,0-1.775-0.336-2.28-0.888c-0.575-0.648-0.815-1.68-0.815-3.048v-6.336
		h-1.801v-1.608h1.801v-2.16L692.942,164.583z"/>
	<path d="M698.342,170.991c0-1.368-0.023-2.544-0.096-3.625h1.848l0.097,2.304h0.071c0.528-1.56,1.824-2.544,3.24-2.544
		c0.217,0,0.385,0.024,0.576,0.048v1.992c-0.216-0.048-0.432-0.048-0.72-0.048c-1.488,0-2.544,1.104-2.832,2.688
		c-0.048,0.288-0.072,0.648-0.072,0.984v6.192h-2.112V170.991z"/>
	<path d="M714.231,176.2c0,1.008,0.048,1.992,0.168,2.784h-1.896l-0.168-1.464h-0.072c-0.647,0.912-1.896,1.729-3.552,1.729
		c-2.353,0-3.553-1.656-3.553-3.336c0-2.808,2.496-4.344,6.984-4.32v-0.24c0-0.936-0.264-2.688-2.64-2.664
		c-1.104,0-2.232,0.312-3.049,0.864l-0.479-1.417c0.96-0.6,2.376-1.008,3.84-1.008c3.553,0,4.417,2.424,4.417,4.729V176.2z
		 M712.191,173.055c-2.305-0.048-4.921,0.36-4.921,2.616c0,1.393,0.912,2.017,1.969,2.017c1.536,0,2.52-0.96,2.855-1.944
		c0.072-0.24,0.097-0.48,0.097-0.672V173.055z"/>
	<path d="M717.639,161.942h2.112v7.272h0.048c0.336-0.6,0.864-1.152,1.513-1.512c0.624-0.36,1.368-0.576,2.16-0.576
		c1.56,0,4.056,0.96,4.056,4.944v6.913h-2.111v-6.672c0-1.873-0.696-3.433-2.688-3.433c-1.368,0-2.425,0.96-2.832,2.088
		c-0.12,0.312-0.145,0.624-0.145,1.008v7.009h-2.112V161.942z"/>
	<path d="M730.959,161.942h2.112v17.042h-2.112V161.942z"/>
</g>
<g>
	
		<radialGradient id="shadow_7_" cx="381.4814" cy="254.7715" r="0.2" gradientTransform="matrix(56.4344 0 0 -56.4356 -21320.5977 14399.9072)" gradientUnits="userSpaceOnUse">
		<stop  offset="0" style="stop-color:#C1C0C0"/>
		<stop  offset="0.88" style="stop-color:#C1C0C0"/>
		<stop  offset="1" style="stop-color:#C1C0C0;stop-opacity:0"/>
	</radialGradient>
	<circle id="shadow" fill="url(#shadow_7_)" cx="208.057" cy="21.706" r="11.287"/>
	
		<linearGradient id="field_7_" gradientUnits="userSpaceOnUse" x1="360.8857" y1="193.0112" x2="352.4967" y2="175.021" gradientTransform="matrix(1 0 0 -1 -148.8999 204.4004)">
		<stop  offset="0" style="stop-color:#BED5F0"/>
		<stop  offset="1" style="stop-color:#6A86C3"/>
	</linearGradient>
	<circle id="field" fill="url(#field_7_)" stroke="#1291D0" stroke-width="0.8" cx="207.454" cy="21.107" r="10.32"/>
	<g id="info">
		<polygon fill="#FFFFFF" points="204.254,18.707 209.054,18.707 209.054,26.307 210.654,26.307 210.654,27.906 204.254,27.906 
			204.254,26.307 205.854,26.307 205.854,19.906 204.254,19.906 		"/>
		<circle fill="#FFFFFF" cx="207.454" cy="15.506" r="1.6"/>
	</g>
</g>
<g>
	
		<radialGradient id="shadow_8_" cx="380.6465" cy="252.4668" r="0.1995" gradientTransform="matrix(56.4344 0 0 -56.4356 -21320.5977 14399.9072)" gradientUnits="userSpaceOnUse">
		<stop  offset="0" style="stop-color:#C1C0C0"/>
		<stop  offset="0.88" style="stop-color:#C1C0C0"/>
		<stop  offset="1" style="stop-color:#C1C0C0;stop-opacity:0"/>
	</radialGradient>
	<circle id="shadow_1_" fill="url(#shadow_8_)" cx="160.931" cy="151.826" r="11.287"/>
	
		<linearGradient id="field_8_" gradientUnits="userSpaceOnUse" x1="313.7598" y1="62.8906" x2="305.3712" y2="44.9012" gradientTransform="matrix(1 0 0 -1 -148.8999 204.4004)">
		<stop  offset="0" style="stop-color:#BED5F0"/>
		<stop  offset="1" style="stop-color:#6A86C3"/>
	</linearGradient>
	<circle id="field_1_" fill="url(#field_8_)" stroke="#1291D0" stroke-width="0.8" cx="160.328" cy="151.227" r="10.32"/>
	<g id="info_1_">
		<polygon fill="#FFFFFF" points="157.128,148.827 161.928,148.827 161.928,156.427 163.528,156.427 163.528,158.026 
			157.128,158.026 157.128,156.427 158.728,156.427 158.728,150.026 157.128,150.026 		"/>
		<circle fill="#FFFFFF" cx="160.328" cy="145.626" r="1.6"/>
	</g>
</g>
<g>
	
		<radialGradient id="shadow_9_" cx="385.498" cy="250.9746" r="0.2" gradientTransform="matrix(56.4344 0 0 -56.4356 -21320.5977 14399.9072)" gradientUnits="userSpaceOnUse">
		<stop  offset="0" style="stop-color:#C1C0C0"/>
		<stop  offset="0.88" style="stop-color:#C1C0C0"/>
		<stop  offset="1" style="stop-color:#C1C0C0;stop-opacity:0"/>
	</radialGradient>
	<circle id="shadow_2_" fill="url(#shadow_9_)" cx="434.715" cy="235.999" r="11.287"/>
	
		<linearGradient id="field_9_" gradientUnits="userSpaceOnUse" x1="587.5435" y1="-21.2817" x2="579.1548" y2="-39.2711" gradientTransform="matrix(1 0 0 -1 -148.8999 204.4004)">
		<stop  offset="0" style="stop-color:#BED5F0"/>
		<stop  offset="1" style="stop-color:#6A86C3"/>
	</linearGradient>
	<circle id="field_2_" fill="url(#field_9_)" stroke="#1291D0" stroke-width="0.8" cx="434.112" cy="235.4" r="10.32"/>
	<g id="info_2_">
		<polygon fill="#FFFFFF" points="430.912,233 435.712,233 435.712,240.6 437.313,240.6 437.313,242.199 430.912,242.199 
			430.912,240.6 432.512,240.6 432.512,234.199 430.912,234.199 		"/>
		<circle fill="#FFFFFF" cx="434.112" cy="229.799" r="1.6"/>
	</g>
</g>
<g>
	
		<radialGradient id="shadow_10_" cx="385.7852" cy="248.4229" r="0.2002" gradientTransform="matrix(56.4344 0 0 -56.4356 -21320.5977 14399.9072)" gradientUnits="userSpaceOnUse">
		<stop  offset="0" style="stop-color:#C1C0C0"/>
		<stop  offset="0.88" style="stop-color:#C1C0C0"/>
		<stop  offset="1" style="stop-color:#C1C0C0;stop-opacity:0"/>
	</radialGradient>
	<circle id="shadow_3_" fill="url(#shadow_10_)" cx="450.956" cy="380" r="11.288"/>
	
		<linearGradient id="field_10_" gradientUnits="userSpaceOnUse" x1="603.7842" y1="-165.2827" x2="595.3956" y2="-183.2721" gradientTransform="matrix(1 0 0 -1 -148.8999 204.4004)">
		<stop  offset="0" style="stop-color:#BED5F0"/>
		<stop  offset="1" style="stop-color:#6A86C3"/>
	</linearGradient>
	<circle id="field_3_" fill="url(#field_10_)" stroke="#1291D0" stroke-width="0.8" cx="450.353" cy="379.4" r="10.32"/>
	<g id="info_3_">
		<polygon fill="#FFFFFF" points="447.153,377 451.953,377 451.953,384.6 453.553,384.6 453.553,386.199 447.153,386.199 
			447.153,384.6 448.753,384.6 448.753,378.199 447.153,378.199 		"/>
		<circle fill="#FFFFFF" cx="450.353" cy="373.8" r="1.601"/>
	</g>
</g>
<g>
	
		<radialGradient id="shadow_11_" cx="388.9502" cy="253.6123" r="0.2" gradientTransform="matrix(56.4344 0 0 -56.4356 -21320.5977 14399.9072)" gradientUnits="userSpaceOnUse">
		<stop  offset="0" style="stop-color:#C1C0C0"/>
		<stop  offset="0.88" style="stop-color:#C1C0C0"/>
		<stop  offset="1" style="stop-color:#C1C0C0;stop-opacity:0"/>
	</radialGradient>
	<circle id="shadow_4_" fill="url(#shadow_11_)" cx="629.544" cy="87.143" r="11.287"/>
	
		<linearGradient id="field_11_" gradientUnits="userSpaceOnUse" x1="782.373" y1="127.5737" x2="773.9844" y2="109.5843" gradientTransform="matrix(1 0 0 -1 -148.8999 204.4004)">
		<stop  offset="0" style="stop-color:#BED5F0"/>
		<stop  offset="1" style="stop-color:#6A86C3"/>
	</linearGradient>
	<circle id="field_4_" fill="url(#field_11_)" stroke="#1291D0" stroke-width="0.8" cx="628.942" cy="86.544" r="10.32"/>
	<g id="info_4_">
		<polygon fill="#FFFFFF" points="625.742,84.144 630.542,84.144 630.542,91.744 632.142,91.744 632.142,93.344 625.742,93.344 
			625.742,91.744 627.342,91.744 627.342,85.344 625.742,85.344 		"/>
		<circle fill="#FFFFFF" cx="628.942" cy="80.944" r="1.6"/>
	</g>
</g>
<g>
	
		<radialGradient id="shadow_12_" cx="389.5391" cy="251.6563" r="0.2002" gradientTransform="matrix(56.4344 0 0 -56.4356 -21320.5977 14399.9072)" gradientUnits="userSpaceOnUse">
		<stop  offset="0" style="stop-color:#C1C0C0"/>
		<stop  offset="0.88" style="stop-color:#C1C0C0"/>
		<stop  offset="1" style="stop-color:#C1C0C0;stop-opacity:0"/>
	</radialGradient>
	<circle id="shadow_5_" fill="url(#shadow_12_)" cx="662.803" cy="197.533" r="11.287"/>
	
		<linearGradient id="field_12_" gradientUnits="userSpaceOnUse" x1="815.6309" y1="17.1841" x2="807.2422" y2="-0.8053" gradientTransform="matrix(1 0 0 -1 -148.8999 204.4004)">
		<stop  offset="0" style="stop-color:#BED5F0"/>
		<stop  offset="1" style="stop-color:#6A86C3"/>
	</linearGradient>
	<circle id="field_5_" fill="url(#field_12_)" stroke="#1291D0" stroke-width="0.8" cx="662.2" cy="196.934" r="10.32"/>
	<g id="info_5_">
		<polygon fill="#FFFFFF" points="659,194.534 663.8,194.534 663.8,202.134 665.4,202.134 665.4,203.733 659,203.733 659,202.134 
			660.6,202.134 660.6,195.733 659,195.733 		"/>
		<circle fill="#FFFFFF" cx="662.2" cy="191.333" r="1.6"/>
	</g>
</g>
<g>
	
		<radialGradient id="shadow_13_" cx="392.9092" cy="248.8613" r="0.1997" gradientTransform="matrix(56.4344 0 0 -56.4356 -21320.5977 14399.9072)" gradientUnits="userSpaceOnUse">
		<stop  offset="0" style="stop-color:#C1C0C0"/>
		<stop  offset="0.88" style="stop-color:#C1C0C0"/>
		<stop  offset="1" style="stop-color:#C1C0C0;stop-opacity:0"/>
	</radialGradient>
	<circle id="shadow_6_" fill="url(#shadow_13_)" cx="853.003" cy="355.287" r="11.287"/>
	
		<linearGradient id="field_13_" gradientUnits="userSpaceOnUse" x1="1005.8311" y1="-140.5703" x2="997.4424" y2="-158.5597" gradientTransform="matrix(1 0 0 -1 -148.8999 204.4004)">
		<stop  offset="0" style="stop-color:#BED5F0"/>
		<stop  offset="1" style="stop-color:#6A86C3"/>
	</linearGradient>
	<circle id="field_6_" fill="url(#field_13_)" stroke="#1291D0" stroke-width="0.8" cx="852.4" cy="354.688" r="10.32"/>
	<g id="info_6_">
		<polygon fill="#FFFFFF" points="849.2,352.288 854,352.288 854,359.889 855.601,359.889 855.601,361.488 849.2,361.488 
			849.2,359.889 850.801,359.889 850.801,353.488 849.2,353.488 		"/>
		<circle fill="#FFFFFF" cx="852.4" cy="349.088" r="1.6"/>
	</g>
</g>
</svg>
